<?xml version="1.0" encoding="UTF-8"?>
<svg width="42px" height="50px" viewBox="0 0 42 50" version="1.1" xmlns="http://www.w3.org/2000/svg" xmlns:xlink="http://www.w3.org/1999/xlink">
    <!-- Generator: sketchtool 53.2 (72643) - https://sketchapp.com -->
    <title>FDFB572F-54BF-4016-A74D-61E59BDDFB7D</title>
    <desc>Created with sketchtool.</desc>
    <g id="home" stroke="none" stroke-width="1" fill="none" fill-rule="evenodd">
        <g id="Landing-Page" transform="translate(-187.000000, -3406.000000)">
            <g id="what-we-provide" transform="translate(0.000000, 3135.000000)">
                <g id="what-we-provide_9" transform="translate(179.000000, 267.000000)">
                    <g id="ic_tailored">
                        <rect id="ic_tailored_bg" x="0" y="0" width="60" height="60"></rect>
                        <path d="M41.6104145,40.3537277 C41.4340443,47.4893174 49.9968692,54.0009872 50,54 L20.4835619,54 C20.4835619,54 26.0992304,51.3463662 23.7709352,46.1664493 C22.7356735,46.3401992 19.7686886,46.8525637 17.4539604,47.1428049 C15.1454937,47.4300845 13.1302817,46.1082036 12.7044886,45.0153567 C12.2786955,43.9215225 13.5310282,41.9609136 13.0113101,41.3320577 C12.4905484,40.7022146 10.7425007,38.8985728 11.3540565,37.3407476 C11.9656123,35.7888457 11.660878,34.9901888 11.660878,34.9901888 C11.660878,34.9901888 8.32028053,34.366269 8.01345902,33.2161635 C7.71185556,32.0650709 12.5792553,24.9847652 12.5792553,24.9847652 C12.5792553,24.9847652 11.5481681,23.2561519 11.301876,22.3350803 C11.0587147,21.4140088 11.2987451,16.4631258 14.4702777,10.8172434 C17.6334614,5.17333552 24.8750752,3.1584298 34.5545634,4.31248408 C44.2309207,5.46160229 49.9290345,14.7019343 49.9509503,20.2589673 C49.9989564,31.3118259 41.7210372,36.3713025 41.6104145,40.3537277 Z M40.3497329,33.7472852 L41.3234216,34.3563968 L42.3294622,32.906178 L41.3557735,32.3029897 C41.5989348,31.744226 41.7231245,31.13314 41.7116447,30.5023096 L42.8564856,30.2782118 L42.4734805,28.5802021 L41.3359449,28.8052871 C41.0771295,28.2267792 40.7066478,27.716389 40.2474591,27.2958355 L40.8871924,26.3727895 L39.3509976,25.4240759 L38.7102207,26.3441602 C38.1216243,26.1161136 37.4798038,25.9976478 36.8160675,26.0094944 L36.5760371,24.9235579 L34.7852013,25.2779681 L35.0221009,26.3619301 C34.4074143,26.604785 33.866824,26.9582079 33.4159842,27.3906081 L32.4454264,26.788407 L31.4404294,28.2415874 L32.4193361,28.8447757 C32.1740876,29.3966289 32.0519852,30.0106766 32.0603341,30.6395325 L30.913406,30.8656047 L31.2922367,32.5636145 L32.4370775,32.3375422 C32.6948493,32.9170374 33.0695055,33.4284148 33.5266069,33.8479811 L32.8900045,34.7680655 L34.4220248,35.7187535 L35.0628017,34.7957075 C35.6524417,35.027703 36.2963494,35.1461688 36.9590422,35.1362966 L37.2001162,36.2153226 L38.9940828,35.8618996 L38.7561396,34.7789248 C39.3624773,34.5390316 39.9072421,34.1865958 40.3497329,33.7472852 Z M28.7093005,21.9382199 C29.407476,22.654938 30.2434081,23.2117272 31.1482184,23.596741 L30.7422539,25.2631599 L33.5182581,25.8722715 L33.9273534,24.2009166 C34.9177399,24.2413924 35.9258677,24.0814636 36.8912075,23.7319895 L37.8502856,25.1910932 L40.2693749,23.7606187 L39.3102968,22.3025022 C40.0648272,21.6410682 40.6575981,20.850309 41.0604317,19.9894576 L42.8241336,20.3715098 L43.4680414,17.7494668 L41.6980778,17.3585297 C41.7356478,16.4167267 41.5738882,15.463077 41.2013192,14.5518776 L42.7406448,13.6406782 L41.2294967,11.3552756 L39.6933019,12.266475 C38.9867775,11.5537058 38.1550199,10.9969165 37.2481223,10.6109155 L37.6572176,8.94252222 L34.8791263,8.3334106 L34.4721181,10.0067399 C33.4744264,9.97021299 32.4694294,10.1271802 31.5020024,10.4776415 L30.5397935,9.01755056 L28.1269658,10.4470378 L29.0891747,11.9081159 C28.3356879,12.56955 27.7439607,13.3632708 27.3390398,14.2201734 L25.566989,13.8381212 L24.9314302,16.4601641 L26.6961757,16.850114 C26.6596493,17.7879682 26.8224526,18.7396434 27.1960652,19.6518301 L25.6556959,20.5650039 L27.1658004,22.8513937 L28.7093005,21.9382199 Z M36.8859894,33.6850906 C35.0681178,33.6850906 33.5944416,32.2910504 33.5944416,30.5714147 C33.5944416,28.8517789 35.0681178,27.4577387 36.8859894,27.4577387 C38.7038611,27.4577387 40.1775372,28.8517789 40.1775372,30.5714147 C40.1775372,32.2910504 38.7038611,33.6850906 36.8859894,33.6850906 Z M34.201823,21.9411815 C31.3770326,21.9411815 29.0870875,19.7749827 29.0870875,17.102841 C29.0870875,14.4306994 31.3770326,12.2645005 34.201823,12.2645005 C37.0266134,12.2645005 39.3165585,14.4306994 39.3165585,17.102841 C39.3165585,19.7749827 37.0266134,21.9411815 34.201823,21.9411815 Z" id="ic_plan" fill="#FED693"></path>
                    </g>
                </g>
            </g>
        </g>
    </g>
</svg>