<?xml version="1.0" encoding="UTF-8"?>
<svg width="51px" height="48px" viewBox="0 0 51 48" version="1.1" xmlns="http://www.w3.org/2000/svg" xmlns:xlink="http://www.w3.org/1999/xlink">
    <!-- Generator: sketchtool 53.2 (72643) - https://sketchapp.com -->
    <title>C9AF1E2C-CDEF-4689-9913-E8AE0974888F</title>
    <desc>Created with sketchtool.</desc>
    <g id="home" stroke="none" stroke-width="1" fill="none" fill-rule="evenodd" opacity="0.300000012">
        <g id="Landing-Page" transform="translate(-691.000000, -4176.000000)" fill="#FFFFFF">
            <g id="logo_frontend-ninja" transform="translate(691.000000, 4176.000000)">
                <path d="M50.8284271,46.2175279 C50.6987569,46.0351148 50.55729,45.8532114 50.4040266,45.6718176 C48.3555128,49.2068661 29.2482799,47.9178107 21.8395214,45.6718176 C17.2401308,44.2774949 12.6308047,45.0535557 8.01154297,48 L6.98763134,48 C6.98763134,43.5260182 8.32044756,39.3639575 10.6099348,35.8907183 L1.3931787,26.6739622 C0.612130112,25.8929136 0.612130112,24.6265836 1.3931787,23.845535 L2.82022734,22.4184864 C3.60127593,21.6374378 4.86760589,21.6374378 5.64865447,22.4184864 L14.5856845,31.3555164 C16.4109362,29.7732918 18.4991377,28.4874468 20.77577,27.5726499 C16.6804801,24.8960034 13.9736024,20.2647491 13.9736024,15 C13.9736024,6.71572875 20.6758719,0 28.9435404,0 C37.2112089,0 43.9134784,6.71572875 43.9134784,15 C43.9134784,20.2647491 41.2066007,24.8960034 37.1113108,27.5726499 C44.66867,30.6093495 50.1496527,37.7347441 50.8284271,46.2175279 Z M22.9635817,11 C20.7544427,11 18.9635817,12.790861 18.9635817,15 C18.9635817,17.209139 20.7544427,19 22.9635817,19 L34.9234991,19 C37.1326381,19 38.9234991,17.209139 38.9234991,15 C38.9234991,12.790861 37.1326381,11 34.9234991,11 L22.9635817,11 Z M24.9515569,17 C23.8492011,17 22.9555652,16.1045695 22.9555652,15 C22.9555652,13.8954305 23.8492011,13 24.9515569,13 C26.0539127,13 26.9475487,13.8954305 26.9475487,15 C26.9475487,16.1045695 26.0539127,17 24.9515569,17 Z M32.9355239,17 C31.8331681,17 30.9395321,16.1045695 30.9395321,15 C30.9395321,13.8954305 31.8331681,13 32.9355239,13 C34.0378797,13 34.9315156,13.8954305 34.9315156,15 C34.9315156,16.1045695 34.0378797,17 32.9355239,17 Z" id="logo_frontend_ninja_glyph"></path>
            </g>
        </g>
    </g>
</svg>