<?xml version="1.0" encoding="UTF-8"?>
<svg width="54px" height="48px" viewBox="0 0 54 48" version="1.1" xmlns="http://www.w3.org/2000/svg" xmlns:xlink="http://www.w3.org/1999/xlink">
    <!-- Generator: sketchtool 53.2 (72643) - https://sketchapp.com -->
    <title>F60DB839-53A8-4A38-8B00-5C726E7C3FE9</title>
    <desc>Created with sketchtool.</desc>
    <g id="home" stroke="none" stroke-width="1" fill="none" fill-rule="evenodd">
        <g id="Landing-Page" transform="translate(-558.000000, -3407.000000)">
            <g id="what-we-provide" transform="translate(0.000000, 3135.000000)">
                <g id="what-we-provide_6" transform="translate(555.000000, 266.000000)">
                    <g id="ic_senior-team">
                        <rect id="ic_senior_bg" x="0" y="0" width="60" height="60"></rect>
                        <path d="M42.3,22.6555154 C41.46,22.2284509 40.56,21.5573495 40.5,21.4963403 C38.88,20.1541376 38.04,18.3238612 38.04,16.3715664 C38.04,12.4059675 41.76,9.23348834 46.32,9.23348834 C50.88,9.23348834 54.6,12.4669767 54.6,16.3715664 C54.6,20.2761561 51,23.387626 46.56,23.5096444 C46.62,23.692672 46.62,23.9367089 46.62,24.1197365 C46.62,25.4619392 45.54,26.5601051 44.22,26.5601051 C42.9,26.5601051 41.82,25.4619392 41.82,24.1197365 C41.82,23.5706536 42,23.0825799 42.3,22.6555154 Z M31.2,22.3504693 C28.7147186,22.3504693 26.7,20.3018627 26.7,17.7747783 C26.7,15.2476939 28.7147186,13.1990872 31.2,13.1990872 C33.6852814,13.1990872 35.7,15.2476939 35.7,17.7747783 C35.7,20.3018627 33.6852814,22.3504693 31.2,22.3504693 Z M52.08,36.0165332 C49.362759,36.0165332 47.16,33.7767233 47.16,31.0137777 C47.16,28.2508321 49.362759,26.0110222 52.08,26.0110222 C54.797241,26.0110222 57,28.2508321 57,31.0137777 C57,33.7767233 54.797241,36.0165332 52.08,36.0165332 Z M7.92,37.1146991 C5.20275903,37.1146991 3,34.8748891 3,32.1119435 C3,29.348998 5.20275903,27.109188 7.92,27.109188 C10.637241,27.109188 12.84,29.348998 12.84,32.1119435 C12.84,34.8748891 10.637241,37.1146991 7.92,37.1146991 Z M15,51.634892 C15.3,51.9399381 15.54,52.3059933 15.6,52.6110394 C15.72,53.0381039 15.66,53.4041592 15.42,53.6481961 C15.18,53.9532421 14.76,54.0752605 14.16,53.9532421 C13.86,53.8922329 13.56,53.7702145 13.26,53.5261776 L12.12,52.6720486 L9.24,50.4147077 C8.94,50.2316801 8.7,49.8656248 8.58,49.4995695 L6.9,44.3137863 C6.9,44.2527771 6.84,44.2527771 6.84,44.1917679 C6.72,43.947731 6.42,43.8867218 6.18,43.947731 C5.88,44.0697495 5.7,44.3747955 5.82,44.6798416 L7.5,49.8656248 C7.68,50.4757169 8.1,51.0247999 8.58,51.3908551 L10.92,53.2211316 L3.6,53.2211316 L3.6,41.3243348 C3.6,39.7380953 4.86,38.3958926 6.48,38.3958926 L9.24,38.3958926 C10.8,38.3958926 12.12,39.6770861 12.12,41.3243348 L12.12,47.5472747 L12.06,47.4862654 L10.86,41.6903901 C10.8,41.3853441 10.5,41.2023164 10.2,41.2633256 C9.9,41.3243348 9.72,41.6293809 9.78,41.934427 L9.84,42.1784638 L11.04,47.9133299 C11.04,48.0353484 11.1,48.1573668 11.22,48.218376 L15,51.634892 Z M53.46,37.3587359 C55.08,37.3587359 56.34,38.7009386 56.34,40.2871782 L56.34,52.1839749 L47.76,52.1839749 L47.76,47.9743392 L51.78,45.2289245 C52.08,45.0458969 52.14,44.6798416 51.96,44.4358048 C51.78,44.1917679 51.54,44.1307587 51.3,44.1917679 C51.3,44.1917679 51.24,44.1917679 51.18,44.2527771 L46.74,47.3032378 C46.44,47.5472747 46.02,47.6082839 45.6,47.6082839 L40.56,47.6082839 C40.2,47.6082839 39.9,47.4862654 39.6,47.364247 C39.06,47.1202102 38.82,46.7541549 38.82,46.3270904 C38.82,45.9610351 39,45.655989 39.3,45.4119522 C39.6,45.1679153 40.02,44.9848877 40.5,44.9848877 L45.48,44.6798416 C45.6,44.6798416 45.72,44.6188324 45.84,44.5578232 L50.28,40.7752519 L50.46,40.5922243 C50.7,40.3481874 50.7,39.9821321 50.52,39.7380953 C50.28,39.4940584 49.92,39.4940584 49.68,39.6770861 L47.82,41.2633256 L47.82,40.2871782 C47.82,38.7009386 49.08,37.3587359 50.7,37.3587359 L53.46,37.3587359 Z M45.6,48.8284682 C45.66,48.8284682 45.66,48.8284682 45.72,48.8894774 C46.08,48.8894774 46.38,48.8284682 46.68,48.7064497 L46.68,50.8417722 C42.66,52.7940671 37.08,53.9532421 30.9,53.9532421 C25.26,53.9532421 20.16,52.9770947 16.26,51.3298459 C16.08,51.1468183 15.9,50.9637906 15.72,50.780763 L13.32,48.6454405 L13.32,41.3853441 C13.32,40.1651598 12.78,39.0059847 11.94,38.2738742 C15.78,35.2234135 22.86,33.2101094 30.9,33.2101094 C37.92,33.2101094 44.16,34.7353397 48.18,37.1146991 C47.28,37.9078189 46.68,39.0669939 46.68,40.3481874 L46.68,42.3004823 L45.24,43.5206665 L40.44,43.8257126 C39.72,43.8867218 39.06,44.1307587 38.58,44.5578232 C37.98,45.0458969 37.68,45.7169982 37.68,46.3880996 C37.68,47.2422286 38.16,47.9743392 39.06,48.4624129 C39.54,48.7064497 40.02,48.8284682 40.56,48.8284682 L45.6,48.8284682 Z M16.32,25.8279945 L21.54,30.525704 L25.86,24.7298287 C26.04,24.4857918 26.28,24.3027642 26.52,24.1807457 C26.94,23.7536812 27.54,23.5096444 28.2,23.5096444 L28.56,23.5096444 L30.24,28.5123999 L30.9,25.0348747 L30.42,23.6316628 L32.1,23.6316628 L31.68,25.0348747 L32.4,28.5734091 L34.08,23.5706536 L34.44,23.5706536 C34.98,23.5706536 35.52,23.7536812 35.94,24.0587273 C36.3,24.241755 36.66,24.4857918 36.9,24.7908379 L41.4,30.7087316 L41.88,31.3188238 C42.42,31.9899251 42.54,32.8440541 42.24,33.5761647 C40.92,33.2101094 39.54,32.9050633 38.1,32.6610265 L38.28,32.539008 L37.02,30.8917593 L37.02,32.539008 C35.04,32.2949712 33,32.1729528 30.84,32.1729528 C28.98,32.1729528 27.24,32.2949712 25.5,32.4779988 L25.5,31.1968053 L24.42,32.6610265 C22.44,32.9660725 20.52,33.3321278 18.78,33.8812108 L14.22,28.7564368 C13.44,28.1463446 13.32,26.9871696 13.92,26.1940498 C13.92,26.1940498 14.34,25.6449669 14.82,25.5839577 C15,25.5229484 15.12,25.5229484 15.3,25.5229484 C15.66,25.5229484 16.02,25.5839577 16.32,25.8279945 Z M17.1,19.1779902 L6.36,19.1779902 C6,19.1779902 5.7,18.8729441 5.7,18.5068888 L5.7,6.67110135 C5.7,6.30504607 6,6 6.36,6 L23.16,6 C23.52,6 23.82,6.30504607 23.82,6.67110135 L23.82,18.5068888 C23.82,18.8729441 23.52,19.1779902 23.16,19.1779902 L21.12,19.1779902 C21.18,20.0931284 21.42,20.7032205 21.48,20.8862482 C21.54,21.0082666 21.6,21.130285 21.6,21.2523035 C21.6,21.6183588 21.3,21.9234048 20.94,21.9234048 L20.88,21.9234048 C18.9,21.8013864 17.7,20.2761561 17.1,19.1779902 Z M9.84,12.6500043 C9.84,13.1990872 10.32,13.5651425 10.8,13.5651425 C11.28,13.5651425 11.76,13.138078 11.76,12.5889951 C11.76,12.0399122 11.34,11.6738569 10.8,11.6738569 C10.26,11.6738569 9.84,12.1009214 9.84,12.6500043 Z M14.64,11.6738569 C14.1,11.6738569 13.68,12.1009214 13.68,12.6500043 C13.68,13.1990872 14.1,13.6261517 14.64,13.6261517 C15.18,13.6261517 15.6,13.1990872 15.6,12.6500043 C15.6,12.1009214 15.12,11.6738569 14.64,11.6738569 Z M18.54,13.5651425 C19.08,13.5651425 19.5,13.138078 19.5,12.5889951 C19.5,12.0399122 19.08,11.6128477 18.54,11.6128477 C18,11.6128477 17.58,12.0399122 17.58,12.5889951 C17.58,13.138078 18.06,13.5651425 18.54,13.5651425 Z M44.88,31.0137777 C43.92,31.0137777 43.14,30.2206579 43.14,29.2445105 C43.14,28.2683631 43.92,27.4752433 44.88,27.4752433 C45.84,27.4752433 46.62,28.2683631 46.62,29.2445105 C46.62,30.2206579 45.84,31.0137777 44.88,31.0137777 Z M50.22,17.5307414 C50.76,17.5307414 51.18,17.1036769 51.18,16.554594 C51.18,16.0055111 50.76,15.5784466 50.22,15.5784466 C49.68,15.5784466 49.26,16.0055111 49.26,16.554594 C49.26,17.1036769 49.68,17.5307414 50.22,17.5307414 Z M46.32,17.5307414 C46.86,17.5307414 47.28,17.1036769 47.28,16.554594 C47.28,16.0055111 46.86,15.5784466 46.32,15.5784466 C45.78,15.5784466 45.36,16.0055111 45.36,16.554594 C45.36,17.1036769 45.78,17.5307414 46.32,17.5307414 Z M42.48,17.5307414 C43.02,17.5307414 43.44,17.1036769 43.44,16.554594 C43.44,16.0055111 43.02,15.5784466 42.48,15.5784466 C41.94,15.5784466 41.52,16.0055111 41.52,16.554594 C41.52,17.1036769 41.94,17.5307414 42.48,17.5307414 Z" fill="#FED693"></path>
                    </g>
                </g>
            </g>
        </g>
    </g>
</svg>