<?xml version="1.0" encoding="UTF-8"?>
<svg width="50px" height="50px" viewBox="0 0 50 50" version="1.1" xmlns="http://www.w3.org/2000/svg" xmlns:xlink="http://www.w3.org/1999/xlink">
    <!-- Generator: sketchtool 53.2 (72643) - https://sketchapp.com -->
    <title>87D948D3-C3DE-4737-8599-9E74ECFB16FF</title>
    <desc>Created with sketchtool.</desc>
    <g id="home" stroke="none" stroke-width="1" fill="none" fill-rule="evenodd">
        <g id="Landing-Page" transform="translate(-950.000000, -3406.000000)">
            <g id="what-we-provide" transform="translate(0.000000, 3135.000000)">
                <g id="what-we-provide_3" transform="translate(946.000000, 268.000000)">
                    <g id="ic_learning">
                        <rect id="ic_learning_bg" x="0" y="0" width="60" height="60"></rect>
                        <path d="M10.7327935,3 C7.02968961,3 4,6.04497613 4,9.76676432 L4,38.2091471 C4,40.7441406 5.40755735,42.9631076 7.47368421,44.1214193 C7.47368421,44.1214193 8.52119297,44.9759114 10.7327935,44.9759115 C12.9443941,44.9759115 25.3184885,44.9759115 25.3184885,44.9759115 L25.3184885,50.0865885 L13.7179487,50.0865885 L13.7179487,53 L44.8016194,53 L44.8016194,50.0865885 L33.2024291,50.0865885 L33.2024291,44.9759115 L47.2672065,44.9759115 C50.9703104,44.9759115 54,41.9309353 54,38.2091471 L54,9.76676432 C54,6.04497613 50.9703104,3 47.2672065,3 L10.7327935,3 Z M47.2672065,42.2686632 C47.2672065,42.2686632 15.1220263,42.2686648 12.3576248,42.2686632 C9.59322332,42.2686616 8.94331984,41.8278537 8.94331984,41.8278537 C7.61673414,41.1618924 6.69500675,39.7960612 6.69500675,38.2077908 L6.69500675,9.76676432 C6.69500675,7.52745226 8.5074224,5.70589193 10.7354926,5.70589193 L47.2672065,5.70589193 C49.4939271,5.70589193 51.3063428,7.52745226 51.3063428,9.76676432 L51.3063428,38.2091471 C51.3063428,40.4471029 49.4939271,42.2686632 47.2672065,42.2686632 Z M21.4871795,30.5756836 L10.0850202,24.9604492 L10.0850202,23.1266819 L21.4871795,16.7668186 L21.4871795,19.8443468 L13.6329285,23.9092882 L21.4871795,27.5117188 L21.4871795,30.5756836 Z M33.5060729,14.4339193 L30.3265857,14.4339193 L24.0701754,33.1784939 L27.2496626,33.1784939 L33.5060729,14.4339193 Z M36.5128205,27.5117188 L44.3670715,23.9092882 L36.5128205,19.8443468 L36.5128205,16.7668186 L47.9149798,23.1266819 L47.9149798,24.9604492 L36.5128205,30.5756836 L36.5128205,27.5117188 Z" fill="#FED693"></path>
                    </g>
                </g>
            </g>
        </g>
    </g>
</svg>