<?xml version="1.0" encoding="UTF-8"?>
<svg width="60px" height="42px" viewBox="0 0 60 42" version="1.1" xmlns="http://www.w3.org/2000/svg" xmlns:xlink="http://www.w3.org/1999/xlink">
    <!-- Generator: sketchtool 53.2 (72643) - https://sketchapp.com -->
    <title>C6B8A10D-1E3C-4C68-AD6D-C29EF5A51BE7</title>
    <desc>Created with sketchtool.</desc>
    <g id="home" stroke="none" stroke-width="1" fill="none" fill-rule="evenodd">
        <g id="Landing-Page" transform="translate(-174.000000, -3595.000000)">
            <g id="what-we-provide" transform="translate(0.000000, 3135.000000)">
                <g id="what-we-provide_8" transform="translate(174.000000, 456.000000)">
                    <g id="ic_lunch">
                        <rect id="ic_lunch_bg" x="0" y="0" width="60" height="60"></rect>
                        <path d="M59.9936469,12.4625799 L59.9936469,13.8555383 L60,13.8555383 L60,18.7507469 L60,27.8343607 L60,43.9050032 C60,45.0644783 59.0454509,45.9984117 57.9003097,45.9984117 L57.8923684,45.9984117 C56.7488154,45.9984117 55.8069725,45.0644783 55.8069725,43.9050032 L55.8069725,27.8343607 L55.7259708,27.8343607 C55.4496122,26.4636388 54.375943,25.3899331 53.0052678,25.113565 L53.0052678,16.6573384 L53.0052678,13.8555383 L53.0052678,12.4625799 C53.0052678,7.8532693 54.5728883,4.07306281 56.4994573,4.07306281 L57.8923684,4.07306281 C59.0438627,4.07306281 59.9936469,5.02129108 59.9936469,6.17441289 L59.9936469,11.7637182 C59.9936469,11.8066029 59.9714112,11.8399576 59.9666464,11.8828423 C59.9745877,12.0797943 59.9936469,12.265628 59.9936469,12.4625799 Z M9.08171639,4 C9.46925378,4 9.78214257,4.31448777 9.78055431,4.69409674 C9.78055431,4.69727338 9.77737777,4.69727338 9.77737777,4.70203835 L9.78055431,4.70203835 L9.78055431,17.6722762 C9.78055431,19.0096434 8.60364772,20.1309988 6.9867909,20.561434 L6.9867909,43.8255871 C6.9867909,44.9834739 6.03859491,45.9253489 4.89027715,45.9253489 C3.73878286,45.9253489 2.7937634,44.9834739 2.7937634,43.8255871 L2.7937634,20.561434 C1.17849485,20.1309988 0,19.0112317 0,17.6722762 L0,4.70203835 L0.00317653599,4.70203835 C0.00317653599,4.69727338 0,4.69727338 0,4.69409674 C0,4.31448777 0.312888795,4 0.692484845,4 C1.08319877,4 1.39608757,4.31607609 1.39608757,4.69409674 C1.39608757,4.69727338 1.39291103,4.69727338 1.39291103,4.70203835 L1.39608757,4.70203835 L1.39608757,14.4845139 C1.39608757,14.8625345 1.70579983,15.1833756 2.09333722,15.1833756 C2.47928634,15.1833756 2.7937634,14.8625345 2.7937634,14.4845139 L2.7937634,4.70203835 L2.79693994,4.70203835 C2.79693994,4.69727338 2.7937634,4.69727338 2.7937634,4.69409674 C2.7937634,4.31448777 3.10347566,4 3.48624825,4 C3.88013871,4 4.18667443,4.31607609 4.18667443,4.69409674 C4.18667443,4.69727338 4.1834979,4.69727338 4.1834979,4.70203835 L4.18667443,4.70203835 L4.18667443,14.4845139 C4.19461577,14.8625345 4.49956323,15.1833756 4.89027715,15.1833756 C5.27304974,15.1833756 5.58593853,14.8625345 5.58593853,14.4845139 L5.58593853,4.70203835 L5.59387987,4.70203835 C5.59387987,4.69727338 5.59070334,4.69727338 5.59070334,4.69409674 C5.59070334,4.31448777 5.9004156,4 6.28636472,4 C6.67390211,4 6.9867909,4.31607609 6.9867909,4.69409674 C6.9867909,4.69727338 6.98361437,4.69727338 6.98361437,4.70203835 L6.9867909,4.70203835 L6.9867909,14.4845139 C6.9867909,14.8625345 7.29332663,15.1833756 7.68086402,15.1833756 C8.07157794,15.1833756 8.3812902,14.8625345 8.3812902,14.4845139 L8.3812902,4.70203835 L8.38446674,4.70203835 C8.38446674,4.69727338 8.3812902,4.69727338 8.3812902,4.69409674 C8.3812902,4.31448777 8.694179,4 9.08171639,4 Z M29.9960293,5.99969746 C41.040845,5.99969746 50.0002647,14.9578338 49.9986764,26.0030254 C49.9986764,37.0482169 41.040845,46 29.9960293,46 C18.9512137,46 9.99655875,37.0482169 9.99655875,26.0030254 C9.99655875,14.9594222 18.9512137,5.99969746 29.9960293,5.99969746 Z M29.9992059,41.5558749 C38.5901474,41.5558749 45.5562909,34.597436 45.5562909,26.0014371 C45.5562909,17.4086148 38.5901474,10.4406459 29.9992059,10.4406459 C21.4098526,10.4406459 14.4437091,17.4086148 14.4437091,26.0014371 C14.4437091,34.5958477 21.4098526,41.5558749 29.9992059,41.5558749 Z M29.9992059,12.2433914 C37.5831855,12.2433914 43.755195,18.4156109 43.7536067,26.0014371 C43.7536067,33.5888515 37.5831855,39.7531294 29.9992059,39.7531294 C22.4168145,39.7531294 16.244805,33.5888515 16.244805,26.0014371 C16.244805,18.4156109 22.4168145,12.2433914 29.9992059,12.2433914 Z" id="Combined-Shape" fill="#FED693"></path>
                    </g>
                </g>
            </g>
        </g>
    </g>
</svg>