<?xml version="1.0" encoding="UTF-8"?>
<svg width="54px" height="50px" viewBox="0 0 54 50" version="1.1" xmlns="http://www.w3.org/2000/svg" xmlns:xlink="http://www.w3.org/1999/xlink">
    <!-- Generator: sketchtool 53.2 (72643) - https://sketchapp.com -->
    <title>CDA2C867-BCFF-4F5D-8EE7-D28E1A2D80CA</title>
    <desc>Created with sketchtool.</desc>
    <g id="home" stroke="none" stroke-width="1" fill="none" fill-rule="evenodd">
        <g id="Landing-Page" transform="translate(-558.000000, -3598.000000)">
            <g id="what-we-provide" transform="translate(0.000000, 3135.000000)">
                <g id="what-we-provide_5" transform="translate(555.000000, 456.000000)">
                    <g id="ic_travel" transform="translate(0.000000, 2.000000)">
                        <rect id="ic_travel_bg" x="0" y="0" width="60" height="60"></rect>
                        <path d="M44.742,5 L15.258,5 C12.558,5 10.344,7.25522552 10.344,10.0055006 L10.344,49.9944994 C10.344,52.7447745 12.558,55 15.258,55 C17.958,55 20.172,52.7447745 20.172,49.9944994 L39.828,49.9944994 C39.828,52.7447745 42.042,55 44.742,55 C47.442,55 49.656,52.7447745 49.656,49.9944994 L49.656,10.0055006 C49.656,7.25522552 47.442,5 44.742,5 L44.742,5 Z M18.93,45.0440044 C16.878,45.0440044 15.258,43.3388339 15.258,41.3036304 C15.258,39.2684268 16.932,37.5632563 18.93,37.5632563 C20.928,37.5632563 22.602,39.2684268 22.602,41.3036304 C22.602,43.3388339 20.982,45.0440044 18.93,45.0440044 L18.93,45.0440044 Z M41.07,45.0440044 C39.018,45.0440044 37.398,43.3388339 37.398,41.3036304 C37.398,39.2684268 39.072,37.5632563 41.07,37.5632563 C43.068,37.5632563 44.742,39.2684268 44.742,41.3036304 C44.742,43.3388339 43.068,45.0440044 41.07,45.0440044 L41.07,45.0440044 Z M44.742,32.5027503 L15.258,32.5027503 L15.258,15.0110011 L44.688,15.0110011 L44.688,32.5027503 L44.742,32.5027503 Z M3,17.5412541 L7.914,17.5412541 L7.914,27.5522552 L3,27.5522552 L3,17.5412541 Z M52.086,17.5412541 L57,17.5412541 L57,27.5522552 L52.086,27.5522552 L52.086,17.5412541 Z" id="Combined-Shape" fill="#FED693"></path>
                    </g>
                </g>
            </g>
        </g>
    </g>
</svg>