<?xml version="1.0" encoding="UTF-8"?>
<svg width="46px" height="46px" viewBox="0 0 46 46" version="1.1" xmlns="http://www.w3.org/2000/svg" xmlns:xlink="http://www.w3.org/1999/xlink">
    <!-- Generator: sketchtool 53.2 (72643) - https://sketchapp.com -->
    <title>7914C18F-C33B-473C-917E-C82B868F02E7</title>
    <desc>Created with sketchtool.</desc>
    <g id="home" stroke="none" stroke-width="1" fill="none" fill-rule="evenodd">
        <g id="Landing-Page" transform="translate(-952.000000, -3597.000000)">
            <g id="what-we-provide" transform="translate(0.000000, 3135.000000)">
                <g id="what-we-provide_2" transform="translate(945.000000, 456.000000)">
                    <g id="ic_workweek" transform="translate(0.000000, 6.000000)">
                        <rect id="ic_workweek_bg" x="0" y="0" width="60" height="60"></rect>
                        <path d="M42.8537143,3.86915888 L53,3.86915888 L53,46 L7,46 L7,3.86915888 L17.1988571,3.86915888 L17.1988571,8.59813084 L20.6685714,8.59813084 L20.6685714,3.86915888 L39.384,3.86915888 L39.384,8.59813084 L42.8537143,8.59813084 L42.8537143,3.86915888 Z M47.7428571,40.4649533 L47.7428571,14.0257009 L13.0457143,14.0257009 L13.0457143,40.4649533 L47.7428571,40.4649533 Z M17.1988571,0 L20.6685714,0 L20.6685714,3.86915888 L17.1988571,3.86915888 L17.1988571,0 Z M39.384,0 L42.8537143,0 L42.8537143,3.86915888 L39.384,3.86915888 L39.384,0 Z M30.8148571,24.9883178 C32.4445714,24.9883178 33.7588571,25.4719626 34.7051429,26.385514 C35.6514286,27.2990654 36.1771429,28.588785 36.1771429,30.2546729 C36.1771429,32.1892523 35.5988571,33.6939252 34.4422857,34.7149533 C33.2857143,35.7359813 31.6034286,36.2733645 29.448,36.2733645 C27.5554286,36.2733645 26.0308571,35.9509346 24.8742857,35.3598131 L24.8742857,32.1892523 C25.5051429,32.5116822 26.1885714,32.7803738 27.0297143,32.9953271 C27.8182857,33.2102804 28.6068571,33.317757 29.3428571,33.317757 C31.5508571,33.317757 32.6022857,32.4042056 32.6022857,30.5771028 C32.6022857,28.8037383 31.4457143,27.9439252 29.1851429,27.9439252 C28.7645714,27.9439252 28.344,27.9976636 27.8182857,28.0514019 C27.3451429,28.1588785 26.9245714,28.2126168 26.6091429,28.3200935 L25.1897143,27.5140187 L25.8205714,18.7546729 L35.0205714,18.7546729 L35.0205714,21.8714953 L28.9748571,21.8714953 L28.6594286,25.2570093 L29.08,25.1495327 C29.5531429,25.0420561 30.1314286,24.9883178 30.8148571,24.9883178 Z" id="ic_calendar" fill="#FED693"></path>
                    </g>
                </g>
            </g>
        </g>
    </g>
</svg>