<?xml version="1.0" encoding="UTF-8"?>
<svg width="52px" height="52px" viewBox="0 0 52 52" version="1.1" xmlns="http://www.w3.org/2000/svg" xmlns:xlink="http://www.w3.org/1999/xlink">
    <!-- Generator: sketchtool 53.2 (72643) - https://sketchapp.com -->
    <title>C763DAEA-9462-4F75-BE2A-6D56B62F3CC6</title>
    <desc>Created with sketchtool.</desc>
    <g id="home" stroke="none" stroke-width="1" fill="none" fill-rule="evenodd">
        <g id="Landing-Page" transform="translate(-191.000000, -3783.000000)">
            <g id="what-we-provide" transform="translate(0.000000, 3135.000000)">
                <g id="what-we-provide_7" transform="translate(187.000000, 643.000000)">
                    <g id="ic_time" transform="translate(0.000000, 5.000000)">
                        <rect id="ic_time_bg" x="0" y="0" width="60" height="60"></rect>
                        <path d="M30,10.5744167 C21.6301667,10.5744167 14.84525,17.3615 14.84525,25.7291667 C14.84525,34.0979167 21.6301667,40.8828333 30,40.8828333 C38.3709167,40.8828333 45.1536667,34.0968333 45.1536667,25.7291667 C45.1536667,17.3615 38.3709167,10.5744167 30,10.5744167 L30,10.5744167 Z M37.6125833,28.6184167 L29.6381667,28.6184167 C29.5558333,28.6184167 29.4778333,28.6021667 29.3976667,28.5956667 C29.3619167,28.5956667 29.3283333,28.6065 29.2925833,28.6065 C27.90375,28.6065 26.76625,27.4094167 26.76625,25.9469167 L26.76625,14.872 C26.76625,13.4073333 27.90375,12.2124167 29.2925833,12.2124167 C30.6825,12.2124167 31.82,13.4084167 31.82,14.872 L31.82,23.5625 L37.6136667,23.5625 C39.09675,23.5625 40.3111667,24.6989167 40.3111667,26.0888333 C40.3111667,27.47875 39.0956667,28.6184167 37.6125833,28.6184167 L37.6125833,28.6184167 Z M30,0 C15.6404167,0 4,11.6404167 4,26 C4,40.3595833 15.6404167,52 30,52 C44.3595833,52 56,40.3595833 56,26 C56,11.6404167 44.3595833,0 30,0 L30,0 Z M30,44.7655 C19.48625,44.7655 10.9636667,36.2429167 10.9636667,25.7291667 C10.9636667,15.2154167 19.48625,6.69283333 30,6.69283333 C40.51375,6.69283333 49.0363333,15.2154167 49.0363333,25.7291667 C49.0363333,36.2429167 40.51375,44.7655 30,44.7655 L30,44.7655 Z" id="Shape" fill="#FED693"></path>
                    </g>
                </g>
            </g>
        </g>
    </g>
</svg>