<?xml version="1.0" encoding="UTF-8"?>
<svg width="54px" height="58px" viewBox="0 0 54 58" version="1.1" xmlns="http://www.w3.org/2000/svg" xmlns:xlink="http://www.w3.org/1999/xlink">
    <!-- Generator: sketchtool 53.2 (72643) - https://sketchapp.com -->
    <title>5C798285-AF46-4594-9A44-62016B7B536D</title>
    <desc>Created with sketchtool.</desc>
    <g id="home" stroke="none" stroke-width="1" fill="none" fill-rule="evenodd">
        <g id="Landing-Page" transform="translate(-555.000000, -3775.000000)">
            <g id="what-we-provide" transform="translate(0.000000, 3135.000000)">
                <g id="what-we-provide_4" transform="translate(555.000000, 640.000000)">
                    <g id="ic_full-time">
                        <rect id="ic_full-time_bg" x="0" y="1" width="60" height="60"></rect>
                        <path d="M19.7802623,24.512124 C17.7936053,25.7888356 15.4445355,26.526903 12.9274232,26.526903 C5.78771511,26.526903 0,20.5887452 0,13.2634515 C0,5.93815776 5.78771511,0 12.9274232,0 C18.6062603,0 23.4297701,3.756727 25.1659166,8.98012674 C25.5121917,8.70353422 25.8693944,8.44563377 26.2345553,8.20819094 C27.0047569,7.65847143 27.8566198,7.18831659 28.7872067,6.86583859 L28.7883817,6.86523583 C29.5151089,6.61328105 30.2894229,6.45053514 31.1089738,6.41135557 C33.641063,6.18652511 35.5592234,6.83690598 36.9368914,7.67414326 C38.9931123,8.83868065 39.7738887,10.3799447 39.7738887,10.3799447 C39.7738887,10.3799447 44.949103,10.7530547 42.6831476,21.884272 C43.3799127,22.130802 43.8710558,23.1114967 43.0638422,26.0379093 C42.0715687,29.6376076 41.168594,29.8359165 40.6251642,29.4567789 C39.9530737,33.3343508 37.9203525,38.3306502 31.3651202,38.5928519 C24.7064894,38.0690512 22.5968067,32.9534048 22.0034401,29.0143511 C21.4711727,28.9709522 20.7673576,28.2018271 20.0118433,25.4610654 C19.9174728,25.1187722 19.8408618,24.8031053 19.7802623,24.512124 Z M31.6541661,58 C22.9299145,58 15.0310888,54.3761911 9.30774473,48.5161329 C9.43581792,45.9839272 10.2706436,42.7681886 13.5412098,41.9152795 C19.148818,40.4523746 23.7054036,37.1612907 23.7054036,37.1612907 L27.9277063,50.862085 L28.5063856,52.7204022 L30.3981089,47.2213988 C25.6582259,40.4361 31.6541661,40.7007128 31.6541661,40.7007128 C31.6541661,40.7007128 37.6501063,40.4367028 32.9096359,47.2220016 L34.7837343,52.6782088 L35.3677011,50.8379745 L35.3776884,50.8675099 L36.047429,48.6957562 L39.6023412,37.1606879 C39.6023412,37.1606879 44.1589267,40.4517718 49.7665349,41.9146767 C53.0365136,42.7675858 53.8719268,45.9833244 54,48.5161329 C48.2772435,54.3761911 40.3784177,58 31.6541661,58 Z M3.46239486,13.1252905 C3.46239486,7.76188233 7.69989647,3.41423347 12.9274232,3.41423347 C18.15495,3.41423347 22.3924516,7.76188233 22.3924516,13.1252905 C22.3924516,18.4886987 18.15495,22.8363476 12.9274232,22.8363476 C7.69989647,22.8363476 3.46239486,18.4886987 3.46239486,13.1252905 Z M12.9274232,5.39435625 C17.0895149,5.39435625 20.4619564,8.85666972 20.4619564,13.1252905 C20.4619564,17.3939113 17.0895149,20.8556722 12.9274232,20.8556722 C8.76587024,20.8556722 5.39235142,17.394464 5.39235142,13.1252905 C5.39235142,8.85666972 8.76587024,5.39435625 12.9274232,5.39435625 Z M13.5237006,15.6602677 C13.5646375,15.6602677 13.6034197,15.651978 13.6432793,15.6486622 C13.6610545,15.6486622 13.6777524,15.6541886 13.6955276,15.6541886 C14.3860675,15.6541886 14.9516423,15.0435172 14.9516423,14.2974481 L14.9516423,8.64777036 C14.9516423,7.90059593 14.3860675,7.29102981 13.6955276,7.29102981 C13.0044491,7.29102981 12.4388744,7.90114857 12.4388744,8.64777036 L12.4388744,13.081079 L9.55821356,13.081079 C8.82081179,13.081079 8.2169934,13.6608024 8.2169934,14.3698444 C8.2169934,15.0788864 8.82135043,15.6602677 9.5587522,15.6602677 L13.5237006,15.6602677 Z" id="Combined-Shape" fill="#FED693"></path>
                    </g>
                </g>
            </g>
        </g>
    </g>
</svg>