<?xml version="1.0" encoding="UTF-8"?>
<svg width="60px" height="50px" viewBox="0 0 60 50" version="1.1" xmlns="http://www.w3.org/2000/svg" xmlns:xlink="http://www.w3.org/1999/xlink">
    <!-- Generator: sketchtool 53.2 (72643) - https://sketchapp.com -->
    <title>24315A93-C066-4FFD-8DCF-757D1CA2FCCA</title>
    <desc>Created with sketchtool.</desc>
    <g id="home" stroke="none" stroke-width="1" fill="none" fill-rule="evenodd">
        <g id="Landing-Page" transform="translate(-940.000000, -3781.000000)">
            <g id="what-we-provide" transform="translate(0.000000, 3135.000000)">
                <g id="what-we-provide_1" transform="translate(940.000000, 643.000000)">
                    <g id="ic_retreats" transform="translate(0.000000, 3.000000)">
                        <rect id="ic_retreats_bg" x="1" y="1" width="60" height="60"></rect>
                        <path d="M9.84538056,19.3938107 C7.2838375,19.3938107 5.20729657,17.2915456 5.20729657,14.6982702 C5.20729657,12.1049948 7.2838375,10.0027297 9.84538056,10.0027297 C12.4069236,10.0027297 14.4834645,12.1049948 14.4834645,14.6982702 C14.4834645,17.2915456 12.4069236,19.3938107 9.84538056,19.3938107 Z M18.8669008,34.8675098 L20.3044122,47.4184384 C20.4402244,48.6002851 19.6023834,49.6699119 18.4359969,49.806901 C18.3521129,49.8165054 18.2692276,49.8215604 18.1873408,49.8215604 C17.1223141,49.8215604 16.2015878,49.0127688 16.0757619,47.9153397 L14.8579465,37.2716428 L9.1488441,37.2766977 C9.03450227,37.2837746 8.92065975,37.29439 8.80631793,37.29439 C6.76064777,37.295401 4.55070486,35.9012465 4.55070486,33.6482565 L4.54970624,23.2840981 C4.54970624,21.3531083 6.21140755,20.0661187 7.77174908,19.6794152 L7.78523043,19.6773933 C7.78523043,19.6773933 8.33896443,19.559613 8.83627648,19.5484921 C9.35605745,19.5368657 9.84388263,19.6854812 9.84388263,19.6854812 C10.8689646,19.939745 11.941481,20.5913277 12.5531348,21.5583391 C12.5611238,21.568449 12.569612,21.574515 12.5766024,21.5846249 C15.7701846,26.0036598 16.4871927,26.7912206 20.1226636,25.3813958 C21.0508796,25.021989 22.0924388,25.4920991 22.4474477,26.4318138 C22.8034552,27.372034 22.3390976,28.425485 21.409883,28.7859028 C19.9169482,29.3641887 18.641213,29.623002 17.5267547,29.623002 C15.6992827,29.623002 14.300218,28.9299688 13.0624303,27.8310232 L13.0624303,32.9643222 L16.7518266,32.9612892 L16.7528253,32.9612892 C17.8333306,32.9612892 18.7420735,33.7812017 18.8669008,34.8675098 Z M14.2962236,39.7157098 C14.2962236,40.4062156 13.9157499,41.0072488 13.3580214,41.3166116 C13.6895628,41.9287657 13.8778024,42.6298869 13.8778024,43.3754916 L13.8778024,48.4723949 C13.8778024,49.3155601 13.2027362,49.9994945 12.3698883,49.9994945 C11.5370404,49.9994945 10.8619743,49.3155601 10.8619743,48.4723949 L10.8619743,43.3754916 C10.8619743,42.6865023 10.307741,42.1264141 9.62818102,42.1264141 L4.59414477,42.1264141 C3.9130869,42.1264141 3.36035151,42.6870078 3.36035151,43.3754916 L3.36035151,48.4734059 C3.36035151,49.3165711 2.68478605,50 1.85193815,50 C1.02008888,50 0.345022719,49.3165711 0.345022719,48.4734059 L0.345022719,43.3759971 C0.345022719,42.6172495 0.54075196,41.9039964 0.88427675,41.2842599 C0.356007523,40.9663037 0,40.3829628 0,39.7157098 L0,23.4337246 C0,22.4277901 0.805385883,21.6114161 1.80000999,21.6114161 C2.79463409,21.6114161 3.60101859,22.4277901 3.60101859,23.4337246 L3.60101859,37.8928958 L12.495215,37.8928958 C13.4898391,37.8928958 14.2962236,38.7092698 14.2962236,39.7157098 Z M50.1531215,19.3938107 C47.5915785,19.3938107 45.5150375,17.2915456 45.5150375,14.6982702 C45.5150375,12.1049948 47.5915785,10.0027297 50.1531215,10.0027297 C52.7146646,10.0027297 54.7912055,12.1049948 54.7912055,14.6982702 C54.7912055,17.2915456 52.7146646,19.3938107 50.1531215,19.3938107 Z M51.1926835,37.2938845 C51.0793402,37.2938845 50.9635005,37.2837746 50.8506566,37.2751812 L45.1415542,37.2711373 L43.9227402,47.9143288 C43.7969143,49.0112523 42.8771866,49.8205494 41.8111612,49.8205494 C41.7292745,49.8205494 41.6473878,49.8165054 41.5645024,49.8063955 C40.3961187,49.668901 39.5597756,48.5997796 39.6950885,47.4174274 L41.1321006,34.8664988 C41.2559293,33.7796852 42.1646722,32.9602782 43.2451775,32.9602782 L43.2471747,32.9602782 L46.9365711,32.9633112 L46.9365711,27.8305177 C45.698284,28.9294633 44.2997187,29.6224965 42.4722467,29.6224965 C41.3572891,29.6224965 40.0820532,29.3646942 38.5896177,28.7853973 C37.6604031,28.4249795 37.1960455,27.3715285 37.5510544,26.4313083 C37.9070619,25.4915936 38.9476225,25.0214835 39.8763377,25.3808903 C43.5118087,26.7907151 44.2288168,26.0036598 47.422399,21.5841194 C47.4298887,21.5740095 47.4378776,21.5679435 47.4458666,21.5578337 C48.0580197,20.5908222 49.1300368,19.9392395 50.1556181,19.6849757 C50.1556181,19.6849757 50.6434432,19.5363602 51.1632242,19.5479866 C51.6595376,19.559613 52.2142703,19.6768878 52.2142703,19.6768878 L52.2272523,19.6789097 C53.7875938,20.0656132 55.4482965,21.3526028 55.4482965,23.2835927 L55.4482965,33.6477511 C55.4482965,35.9007411 53.2403508,37.2938845 51.1926835,37.2938845 Z M60,39.7157098 C60,40.3834683 59.6444918,40.9657982 59.1192184,41.2837544 C59.4617446,41.9039964 59.6584724,42.616744 59.6584724,43.3754916 L59.6584724,48.4723949 C59.6584724,49.3155601 58.982907,49.9994945 58.1500591,49.9994945 C57.3177105,49.9994945 56.6426443,49.3155601 56.6426443,48.4723949 L56.6426443,43.3754916 C56.6426443,42.6865023 56.0889103,42.1264141 55.4083518,42.1264141 L50.3748148,42.1264141 C49.6927584,42.1264141 49.1405223,42.6870078 49.1405223,43.3754916 L49.1405223,48.4713839 C49.1405223,49.3145491 48.4639582,49.9984835 47.6321089,49.9984835 C46.799261,49.9984835 46.1241949,49.3145491 46.1241949,48.4713839 L46.1241949,43.3744806 C46.1241949,42.6298869 46.3124345,41.9282602 46.6429772,41.3161061 C46.0842501,41.0072488 45.7047751,40.4052046 45.7047751,39.7157098 C45.7047751,38.7092698 46.5111596,37.8928958 47.5057837,37.8928958 L56.3994807,37.8928958 L56.3994807,23.4337246 C56.3994807,22.4277901 57.2053659,21.6114161 58.19999,21.6114161 C59.1936155,21.6114161 60,22.4277901 60,23.4337246 L60,39.7157098 Z M41.3612836,31.7470909 C41.3612836,32.7115748 40.5888521,33.4935752 39.63617,33.4935752 L37.2689446,33.4935752 L37.2689446,49.0046809 L21.9895811,49.0046809 L21.9895811,33.4935752 L19.6228551,33.4935752 C18.6701729,33.4935752 17.8977415,32.7115748 17.8977415,31.7470909 C17.8977415,30.7831124 18.6701729,30.0006066 19.6228551,30.0006066 L39.63617,30.0006066 C40.5888521,30.0006066 41.3612836,30.7831124 41.3612836,31.7470909 Z M17.7459514,12.1950603 C17.0244495,12.1950603 16.4397583,11.603126 16.4397583,10.8726861 L16.4397583,1.3228797 C16.4397583,0.592439821 17.0244495,0 17.7459514,0 L34.541218,0 C35.2622206,0 35.8469118,0.592439821 35.8469118,1.3228797 L35.8469118,9.63826797 L24.2339763,9.63826797 C23.5124744,9.63826797 22.9277832,10.2307078 22.9277832,10.9601367 L22.9277832,12.1950603 L20.0612486,12.1950603 L17.1332989,14.7078746 L18.1623754,12.1950603 L17.7459514,12.1950603 Z M30.1443004,4.28710079 C29.4492619,4.28710079 28.8865403,4.85729884 28.8865403,5.5609475 C28.8865403,6.26459616 29.4497612,6.83479421 30.1443004,6.83479421 C30.8393389,6.83479421 31.4020605,6.26459616 31.4020605,5.5609475 C31.4020605,4.85780433 30.8393389,4.28710079 30.1443004,4.28710079 Z M26.2122397,4.28710079 C25.5177005,4.28710079 24.9544796,4.85729884 24.9544796,5.5609475 C24.9544796,6.26459616 25.5177005,6.83479421 26.2122397,6.83479421 C26.9072783,6.83479421 27.4699998,6.26459616 27.4699998,5.5609475 C27.4699998,4.85780433 26.9072783,4.28710079 26.2122397,4.28710079 Z M22.142869,4.28710079 C21.4483298,4.28710079 20.8851089,4.85729884 20.8851089,5.5609475 C20.8851089,6.26459616 21.4483298,6.83479421 22.142869,6.83479421 C22.8374083,6.83479421 23.4006291,6.26459616 23.4006291,5.5609475 C23.4006291,4.85780433 22.8374083,4.28710079 22.142869,4.28710079 Z M23.902435,11.9473679 C23.902435,11.216928 24.4881248,10.6249937 25.2086281,10.6249937 L42.0043939,10.6249937 C42.7263952,10.6249937 43.3110863,11.216928 43.3110863,11.9473679 L43.3110863,21.4976798 C43.3110863,22.2276142 42.7263952,22.8195485 42.0043939,22.8195485 L41.5874707,22.8195485 L42.6170464,25.3318573 L39.6885974,22.8195485 L25.2086281,22.8195485 C24.4881248,22.8195485 23.902435,22.2276142 23.902435,21.4976798 L23.902435,11.9473679 Z M37.606977,15.1552374 C36.9129371,15.1552374 36.3492169,15.7254355 36.3492169,16.4290841 C36.3492169,17.1327328 36.9124378,17.7029309 37.606977,17.7029309 C38.3020155,17.7029309 38.8652364,17.1327328 38.8652364,16.4290841 C38.8652364,15.725941 38.3020155,15.1552374 37.606977,15.1552374 Z M33.6749164,15.1552374 C32.9808765,15.1552374 32.4171563,15.7254355 32.4171563,16.4290841 C32.4171563,17.1327328 32.9803771,17.7029309 33.6749164,17.7029309 C34.3704542,17.7029309 34.9331758,17.1327328 34.9331758,16.4290841 C34.9331758,15.725941 34.3704542,15.1552374 33.6749164,15.1552374 Z M29.606045,15.1552374 C28.9115058,15.1552374 28.3482849,15.7254355 28.3482849,16.4290841 C28.3482849,17.1327328 28.9110064,17.7029309 29.606045,17.7029309 C30.3010835,17.7029309 30.8638051,17.1327328 30.8638051,16.4290841 C30.8638051,15.725941 30.3005842,15.1552374 29.606045,15.1552374 Z" id="Combined-Shape" fill="#FED693"></path>
                    </g>
                </g>
            </g>
        </g>
    </g>
</svg>