<?xml version="1.0" encoding="UTF-8"?>
<svg width="24px" height="24px" viewBox="0 0 24 24" version="1.1" xmlns="http://www.w3.org/2000/svg" xmlns:xlink="http://www.w3.org/1999/xlink">
    <!-- Generator: sketchtool 53.2 (72643) - https://sketchapp.com -->
    <title>A7023F95-8724-45A8-A0A6-D92B00859B4F</title>
    <desc>Created with sketchtool.</desc>
    <defs>
        <path d="M12,1 C5.9,1 1,5.9 1,12 C1,18.1 5.9,23 12,23 C18.1,23 23,18.1 23,12 C23,5.9 18.1,1 12,1 Z M20.9,11 L16.9,11 C16.7,8.2 15.8,5.6 14.2,3.3 C17.8,4.2 20.5,7.3 20.9,11 Z M9.1,13 L15,13 C14.7,15.7 13.7,18.3 12.1,20.4 C10.3,18.3 9.3,15.7 9.1,13 Z M9.1,11 C9.4,8.3 10.4,5.7 12,3.6 C13.7,5.8 14.7,8.4 14.9,11 L9.1,11 Z M9.7,3.3 C8.2,5.6 7.3,8.2 7.1,11 L3.1,11 C3.5,7.3 6.2,4.2 9.7,3.3 Z M3.1,13 L7.1,13 C7.3,15.8 8.2,18.4 9.8,20.7 C6.2,19.8 3.5,16.7 3.1,13 Z M14.3,20.7 C15.8,18.4 16.7,15.8 17,13 L21,13 C20.5,16.7 17.8,19.8 14.3,20.7 Z" id="path-1"></path>
    </defs>
    <g id="Symbols" stroke="none" stroke-width="1" fill="none" fill-rule="evenodd">
        <g id="icon-/-globe">
            <mask id="mask-2" fill="white">
                <use xlink:href="#path-1"></use>
            </mask>
            <use id="Mask" fill="#000000" fill-rule="nonzero" xlink:href="#path-1"></use>
            <g id="color-/-black" mask="url(#mask-2)" fill="#D2D9CA">
                <rect id="Shape" x="0" y="0" width="24" height="24"></rect>
            </g>
        </g>
    </g>
</svg>