<?xml version="1.0" encoding="UTF-8"?>
<svg width="121px" height="35px" viewBox="0 0 121 35" version="1.1" xmlns="http://www.w3.org/2000/svg" xmlns:xlink="http://www.w3.org/1999/xlink">
    <!-- Generator: sketchtool 53.2 (72643) - https://sketchapp.com -->
    <title>D6314381-0A34-4D97-B0AF-5E070919809B</title>
    <desc>Created with sketchtool.</desc>
    <g id="Symbols" stroke="none" stroke-width="1" fill="none" fill-rule="evenodd">
        <g id="logo_frontend-ninja">
            <g transform="translate(0.000000, 1.000000)">
                <g fill="#FFFFFF" id="Combined-Shape">
                    <path d="M31.9818756,29.2892347 C31.8275877,28.923779 31.5926559,28.56167 31.27708,28.2029076 C30.0066402,30.3087694 18.1567863,29.5408669 13.5620496,28.2029076 C10.5124708,27.3148889 7.45584902,27.9046838 4.39218429,29.9722924 C4.39797048,27.050064 5.31891684,24.3417971 6.88473468,22.1167247 L1.57786267,16.8305826 C0.84562962,16.1012099 0.843310901,14.9163442 1.57268366,14.1841112 C1.57440662,14.1823815 1.57613296,14.1806551 1.57786267,14.1789322 C2.3138084,13.4458612 3.50396599,13.4458612 4.23991173,14.1789322 L9.44608244,19.3647663 C10.5262955,18.4819285 11.7434175,17.7591771 13.0609113,17.2329062 C10.4861575,15.5600022 8.78431373,12.6654682 8.78431373,9.375 C8.78431373,4.19733047 12.9981043,0 18.1960784,0 C23.3940525,0 27.6078431,4.19733047 27.6078431,9.375 C27.6078431,12.6654682 25.9059994,15.5600022 23.3312456,17.2329062 C28.2026362,19.1787755 31.701816,23.8107834 31.9818756,29.2892347 Z M14.4215686,6.875 C13.0408568,6.875 11.9215686,7.99428813 11.9215686,9.375 C11.9215686,10.7557119 13.0408568,11.875 14.4215686,11.875 L21.9705882,11.875 C23.3513001,11.875 24.4705882,10.7557119 24.4705882,9.375 C24.4705882,7.99428813 23.3513001,6.875 21.9705882,6.875 L14.4215686,6.875 Z M15.6862745,10.625 C14.9932113,10.625 14.4313725,10.0653559 14.4313725,9.375 C14.4313725,8.68464406 14.9932113,8.125 15.6862745,8.125 C16.3793377,8.125 16.9411765,8.68464406 16.9411765,9.375 C16.9411765,10.0653559 16.3793377,10.625 15.6862745,10.625 Z M20.7058824,10.625 C20.0128191,10.625 19.4509804,10.0653559 19.4509804,9.375 C19.4509804,8.68464406 20.0128191,8.125 20.7058824,8.125 C21.3989456,8.125 21.9607843,8.68464406 21.9607843,9.375 C21.9607843,10.0653559 21.3989456,10.625 20.7058824,10.625 Z"></path>
                </g>
                <path d="M46.859375,9.3515625 L42.359375,9.3515625 L42.359375,14 L40.015625,14 L40.015625,2.625 L47.421875,2.625 L47.421875,4.5234375 L42.359375,4.5234375 L42.359375,7.4609375 L46.859375,7.4609375 L46.859375,9.3515625 Z M52.9921875,9.8359375 L51.125,9.8359375 L51.125,14 L48.78125,14 L48.78125,2.625 L53.0078125,2.625 C54.3515692,2.625 55.3880172,2.92447617 56.1171875,3.5234375 C56.8463578,4.12239883 57.2109375,4.96874453 57.2109375,6.0625 C57.2109375,6.83854555 57.0429704,7.48567449 56.7070312,8.00390625 C56.3710921,8.52213801 55.8619826,8.9348943 55.1796875,9.2421875 L57.640625,13.890625 L57.640625,14 L55.125,14 L52.9921875,9.8359375 Z M51.125,7.9375 L53.015625,7.9375 C53.6041696,7.9375 54.0598942,7.78776191 54.3828125,7.48828125 C54.7057308,7.18880059 54.8671875,6.7760443 54.8671875,6.25 C54.8671875,5.71353898 54.7148453,5.2916682 54.4101562,4.984375 C54.1054672,4.6770818 53.638024,4.5234375 53.0078125,4.5234375 L51.125,4.5234375 L51.125,7.9375 Z M68.3359375,8.5703125 C68.3359375,9.69010977 68.1380228,10.6718708 67.7421875,11.515625 C67.3463522,12.3593792 66.7799516,13.0104144 66.0429688,13.46875 C65.3059859,13.9270856 64.4609423,14.15625 63.5078125,14.15625 C62.5650995,14.15625 61.723962,13.9296898 60.984375,13.4765625 C60.244788,13.0234352 59.671877,12.3763063 59.265625,11.5351562 C58.859373,10.6940062 58.6536459,9.72656797 58.6484375,8.6328125 L58.6484375,8.0703125 C58.6484375,6.95051523 58.8502584,5.96484801 59.2539062,5.11328125 C59.6575541,4.26171449 60.2278609,3.6080752 60.9648438,3.15234375 C61.7018266,2.6966123 62.5442661,2.46875 63.4921875,2.46875 C64.4401089,2.46875 65.2825484,2.6966123 66.0195312,3.15234375 C66.7565141,3.6080752 67.3268209,4.26171449 67.7304688,5.11328125 C68.1341166,5.96484801 68.3359375,6.94791109 68.3359375,8.0625 L68.3359375,8.5703125 Z M65.9609375,8.0546875 C65.9609375,6.8619732 65.747398,5.95573227 65.3203125,5.3359375 C64.893227,4.71614273 64.2838581,4.40625 63.4921875,4.40625 C62.7057252,4.40625 62.0989605,4.71223652 61.671875,5.32421875 C61.2447895,5.93620098 61.0286459,6.83332742 61.0234375,8.015625 L61.0234375,8.5703125 C61.0234375,9.73177664 61.236977,10.6328093 61.6640625,11.2734375 C62.091148,11.9140657 62.7057252,12.234375 63.5078125,12.234375 C64.2942748,12.234375 64.8984354,11.9257843 65.3203125,11.3085938 C65.7421896,10.6914032 65.9557291,9.79167258 65.9609375,8.609375 L65.9609375,8.0546875 Z M79.2890625,14 L76.9453125,14 L72.3828125,6.515625 L72.3828125,14 L70.0390625,14 L70.0390625,2.625 L72.3828125,2.625 L76.953125,10.125 L76.953125,2.625 L79.2890625,2.625 L79.2890625,14 Z M89.671875,4.5234375 L86.1875,4.5234375 L86.1875,14 L83.84375,14 L83.84375,4.5234375 L80.40625,4.5234375 L80.40625,2.625 L89.671875,2.625 L89.671875,4.5234375 Z M97.8515625,9.0703125 L93.3515625,9.0703125 L93.3515625,12.1171875 L98.6328125,12.1171875 L98.6328125,14 L91.0078125,14 L91.0078125,2.625 L98.6171875,2.625 L98.6171875,4.5234375 L93.3515625,4.5234375 L93.3515625,7.234375 L97.8515625,7.234375 L97.8515625,9.0703125 Z M109.257812,14 L106.914062,14 L102.351562,6.515625 L102.351562,14 L100.007812,14 L100.007812,2.625 L102.351562,2.625 L106.921875,10.125 L106.921875,2.625 L109.257812,2.625 L109.257812,14 Z M111.304688,14 L111.304688,2.625 L114.804688,2.625 C115.804693,2.625 116.699215,2.85025816 117.488281,3.30078125 C118.277348,3.75130434 118.893227,4.39192293 119.335938,5.22265625 C119.778648,6.05338957 120,6.99739055 120,8.0546875 L120,8.578125 C120,9.63542195 119.782554,10.5755167 119.347656,11.3984375 C118.912758,12.2213583 118.299483,12.8593727 117.507812,13.3125 C116.716142,13.7656273 115.822922,13.9947916 114.828125,14 L111.304688,14 Z M113.648438,4.5234375 L113.648438,12.1171875 L114.78125,12.1171875 C115.697921,12.1171875 116.398435,11.8177113 116.882812,11.21875 C117.36719,10.6197887 117.614583,9.76302641 117.625,8.6484375 L117.625,8.046875 C117.625,6.89061922 117.385419,6.0143259 116.90625,5.41796875 C116.427081,4.8216116 115.726567,4.5234375 114.804688,4.5234375 L113.648438,4.5234375 Z" id="FRONTEND" fill="#88C542"></path>
                <path d="M49.265625,30 L46.921875,30 L42.359375,22.515625 L42.359375,30 L40.015625,30 L40.015625,18.625 L42.359375,18.625 L46.9296875,26.125 L46.9296875,18.625 L49.265625,18.625 L49.265625,30 Z M62.0046873,30 L59.6609373,30 L59.6609373,18.625 L62.0046873,18.625 L62.0046873,30 Z M81.6265621,30 L79.2828121,30 L74.7203121,22.515625 L74.7203121,30 L72.3765621,30 L72.3765621,18.625 L74.7203121,18.625 L79.2906246,26.125 L79.2906246,18.625 L81.6265621,18.625 L81.6265621,30 Z M96.4593744,18.625 L98.8031244,18.625 L98.8031244,26.5 C98.8031244,27.223962 98.6429698,27.8632785 98.3226557,28.4179688 C98.0023416,28.972659 97.5505232,29.4010402 96.9671869,29.703125 C96.3838507,30.0052098 95.7250031,30.15625 94.9906244,30.15625 C93.7874934,30.15625 92.8500028,29.8502635 92.1781244,29.2382812 C91.5062461,28.626299 91.1703119,27.7604223 91.1703119,26.640625 L93.5296869,26.640625 C93.5296869,27.1979195 93.6468733,27.6093737 93.8812494,27.875 C94.1156256,28.1406263 94.4854136,28.2734375 94.9906244,28.2734375 C95.4385433,28.2734375 95.7953106,28.1197932 96.0609369,27.8125 C96.3265633,27.5052068 96.4593744,27.0677112 96.4593744,26.5 L96.4593744,18.625 Z M115.432812,27.65625 L111.323437,27.65625 L110.542187,30 L108.049999,30 L112.284374,18.625 L114.456249,18.625 L118.714062,30 L116.221874,30 L115.432812,27.65625 Z M111.956249,25.7578125 L114.799999,25.7578125 L113.370312,21.5 L111.956249,25.7578125 Z" id="NINJA" fill="#88C542" opacity="0.699999988"></path>
            </g>
        </g>
    </g>
</svg>