<?xml version="1.0" encoding="UTF-8"?>
<svg width="50px" height="48px" viewBox="0 0 50 48" version="1.1" xmlns="http://www.w3.org/2000/svg" xmlns:xlink="http://www.w3.org/1999/xlink">
    <!-- Generator: sketchtool 53.2 (72643) - https://sketchapp.com -->
    <title>F59A5A53-C654-4C40-855D-076935FAA337</title>
    <desc>Created with sketchtool.</desc>
    <g id="home" stroke="none" stroke-width="1" fill="none" fill-rule="evenodd">
        <g id="Landing-Page" transform="translate(-696.000000, -2059.000000)" fill="#88C542">
            <g id="ic_separator_frontend-ninja" transform="translate(696.000000, 2059.000000)">
                <path d="M49.9711143,46.8627755 C49.7252179,46.2780464 49.3507953,45.698672 48.8478462,45.1246522 C46.8230828,48.494031 27.9373782,47.2653871 20.6145165,45.1246522 C15.7542503,43.7038223 10.8827594,44.6474941 6.00004372,47.9556679 C6.00926545,43.2801023 7.47702372,38.9468753 9.9725459,35.3867595 L0.807611845,26.2218254 C0.0265632611,25.4407768 0.0265632611,24.1744469 0.807611845,23.3933983 L2.22182541,21.9791847 C3.00287399,21.1981361 4.26920395,21.1981361 5.05025253,21.9791847 L14.0546939,30.9836261 C15.7762835,29.5710856 17.7160716,28.4146833 19.8158274,27.5726499 C15.7123135,24.8960034 13,20.2647491 13,15 C13,6.71572875 19.7157288,0 28,0 C36.2842712,0 43,6.71572875 43,15 C43,20.2647491 40.2876865,24.8960034 36.1841726,27.5726499 C43.9479514,30.6860409 49.5247693,38.0972534 49.9711143,46.8627755 Z M22,11 C19.790861,11 18,12.790861 18,15 C18,17.209139 19.790861,19 22,19 L34,19 C36.209139,19 38,17.209139 38,15 C38,12.790861 36.209139,11 34,11 L22,11 Z M24,17 C22.8954305,17 22,16.1045695 22,15 C22,13.8954305 22.8954305,13 24,13 C25.1045695,13 26,13.8954305 26,15 C26,16.1045695 25.1045695,17 24,17 Z M32,17 C30.8954305,17 30,16.1045695 30,15 C30,13.8954305 30.8954305,13 32,13 C33.1045695,13 34,13.8954305 34,15 C34,16.1045695 33.1045695,17 32,17 Z" id="ic_ninja"></path>
            </g>
        </g>
    </g>
</svg>